<mxfile host="app.diagrams.net" agent="Mozilla/5.0 (Windows NT 10.0; Win64; x64) AppleWebKit/537.36 (KHTML, like Gecko) Chrome/128.0.0.0 Safari/537.36" version="24.7.12">
  <diagram name="Page-1" id="x-4jsI9A18BjH0So4EWR">
    <mxGraphModel dx="1760" dy="1024" grid="1" gridSize="10" guides="1" tooltips="1" connect="1" arrows="1" fold="1" page="1" pageScale="1" pageWidth="850" pageHeight="1100" math="0" shadow="0">
      <root>
        <mxCell id="0" />
        <mxCell id="1" parent="0" />
        <mxCell id="6M6CRNUIfoKG4iqnIW77-1" value="" style="outlineConnect=0;dashed=0;verticalLabelPosition=bottom;verticalAlign=top;align=center;html=1;shape=mxgraph.aws3.application_load_balancer;fillColor=#F58534;gradientColor=none;" vertex="1" parent="1">
          <mxGeometry x="399.20000000000005" y="341" width="110" height="90" as="geometry" />
        </mxCell>
        <mxCell id="6M6CRNUIfoKG4iqnIW77-2" value="" style="image;aspect=fixed;perimeter=ellipsePerimeter;html=1;align=center;shadow=0;dashed=0;spacingTop=3;image=img/lib/active_directory/user.svg;" vertex="1" parent="1">
          <mxGeometry x="247.7" y="34" width="43.4" height="117.3" as="geometry" />
        </mxCell>
        <mxCell id="6M6CRNUIfoKG4iqnIW77-3" value="" style="image;aspect=fixed;html=1;points=[];align=center;fontSize=12;image=img/lib/azure2/app_services/CDN_Profiles.svg;" vertex="1" parent="1">
          <mxGeometry x="380" y="220" width="129.2" height="76" as="geometry" />
        </mxCell>
        <mxCell id="6M6CRNUIfoKG4iqnIW77-11" value="&lt;h1 style=&quot;margin-top: 0px;&quot;&gt;User&lt;/h1&gt;" style="text;html=1;whiteSpace=wrap;overflow=hidden;rounded=0;" vertex="1" parent="1">
          <mxGeometry x="148" y="84" width="76" height="50" as="geometry" />
        </mxCell>
        <mxCell id="6M6CRNUIfoKG4iqnIW77-12" value="&lt;h1 style=&quot;margin-top: 0px;&quot;&gt;CloudFront&lt;/h1&gt;" style="text;html=1;whiteSpace=wrap;overflow=hidden;rounded=0;" vertex="1" parent="1">
          <mxGeometry x="210" y="256" width="140" height="40" as="geometry" />
        </mxCell>
        <mxCell id="6M6CRNUIfoKG4iqnIW77-13" value="&lt;h1 style=&quot;margin-top: 0px;&quot;&gt;Load Balancer with target groups&lt;/h1&gt;" style="text;html=1;whiteSpace=wrap;overflow=hidden;rounded=0;" vertex="1" parent="1">
          <mxGeometry x="180" y="357" width="220" height="93" as="geometry" />
        </mxCell>
        <mxCell id="6M6CRNUIfoKG4iqnIW77-19" value="EC2 instance" style="points=[[0,0],[0.25,0],[0.5,0],[0.75,0],[1,0],[1,0.25],[1,0.5],[1,0.75],[1,1],[0.75,1],[0.5,1],[0.25,1],[0,1],[0,0.75],[0,0.5],[0,0.25]];outlineConnect=0;gradientColor=none;html=1;whiteSpace=wrap;fontSize=12;fontStyle=0;container=1;pointerEvents=0;collapsible=0;recursiveResize=0;shape=mxgraph.aws4.group;grIcon=mxgraph.aws4.group_ec2_instance_contents;strokeColor=#D86613;fillColor=none;verticalAlign=top;align=left;spacingLeft=30;fontColor=#D86613;dashed=0;" vertex="1" parent="1">
          <mxGeometry x="318" y="460" width="340" height="400" as="geometry" />
        </mxCell>
        <mxCell id="6M6CRNUIfoKG4iqnIW77-21" value="" style="outlineConnect=0;dashed=0;verticalLabelPosition=bottom;verticalAlign=top;align=center;html=1;shape=mxgraph.aws3.ec2;fillColor=#F58534;gradientColor=none;" vertex="1" parent="6M6CRNUIfoKG4iqnIW77-19">
          <mxGeometry x="100" y="20" width="76.5" height="93" as="geometry" />
        </mxCell>
        <mxCell id="6M6CRNUIfoKG4iqnIW77-22" value="" style="outlineConnect=0;dashed=0;verticalLabelPosition=bottom;verticalAlign=top;align=center;html=1;shape=mxgraph.aws3.ec2;fillColor=#F58534;gradientColor=none;" vertex="1" parent="6M6CRNUIfoKG4iqnIW77-19">
          <mxGeometry x="100" y="160" width="76.5" height="93" as="geometry" />
        </mxCell>
        <mxCell id="6M6CRNUIfoKG4iqnIW77-25" value="" style="dashed=0;outlineConnect=0;html=1;align=center;labelPosition=center;verticalLabelPosition=bottom;verticalAlign=top;shape=mxgraph.webicons.mongodb;gradientColor=#DFDEDE" vertex="1" parent="6M6CRNUIfoKG4iqnIW77-19">
          <mxGeometry x="80" y="287.6" width="113" height="112.4" as="geometry" />
        </mxCell>
        <mxCell id="6M6CRNUIfoKG4iqnIW77-34" value="&lt;h1 style=&quot;margin-top: 0px;&quot;&gt;Frontend&lt;br&gt;(React)&lt;/h1&gt;" style="text;html=1;whiteSpace=wrap;overflow=hidden;rounded=0;" vertex="1" parent="6M6CRNUIfoKG4iqnIW77-19">
          <mxGeometry x="193" y="50" width="137" height="70" as="geometry" />
        </mxCell>
        <mxCell id="6M6CRNUIfoKG4iqnIW77-35" value="&lt;h1 style=&quot;margin-top: 0px;&quot;&gt;Backend&lt;br&gt;(Node.js)&lt;/h1&gt;" style="text;html=1;whiteSpace=wrap;overflow=hidden;rounded=0;" vertex="1" parent="6M6CRNUIfoKG4iqnIW77-19">
          <mxGeometry x="203" y="185" width="117" height="65" as="geometry" />
        </mxCell>
        <mxCell id="6M6CRNUIfoKG4iqnIW77-36" value="&lt;h1 style=&quot;margin-top: 0px;&quot;&gt;MongoDb&lt;/h1&gt;" style="text;html=1;whiteSpace=wrap;overflow=hidden;rounded=0;" vertex="1" parent="6M6CRNUIfoKG4iqnIW77-19">
          <mxGeometry x="193" y="300" width="147" height="50" as="geometry" />
        </mxCell>
        <mxCell id="6M6CRNUIfoKG4iqnIW77-45" value="" style="shape=singleArrow;direction=south;whiteSpace=wrap;html=1;" vertex="1" parent="6M6CRNUIfoKG4iqnIW77-19">
          <mxGeometry x="125" y="113" width="30" height="50" as="geometry" />
        </mxCell>
        <mxCell id="6M6CRNUIfoKG4iqnIW77-46" value="" style="shape=singleArrow;direction=south;whiteSpace=wrap;html=1;" vertex="1" parent="6M6CRNUIfoKG4iqnIW77-19">
          <mxGeometry x="121.5" y="253" width="30" height="50" as="geometry" />
        </mxCell>
        <mxCell id="6M6CRNUIfoKG4iqnIW77-39" value="&lt;h1 style=&quot;margin-top: 0px;&quot;&gt;DNS&lt;/h1&gt;" style="text;html=1;whiteSpace=wrap;overflow=hidden;rounded=0;" vertex="1" parent="1">
          <mxGeometry x="430" y="243" width="60" height="30" as="geometry" />
        </mxCell>
        <mxCell id="6M6CRNUIfoKG4iqnIW77-42" value="" style="shape=singleArrow;direction=south;whiteSpace=wrap;html=1;" vertex="1" parent="1">
          <mxGeometry x="436.4" y="290" width="30" height="50" as="geometry" />
        </mxCell>
        <mxCell id="6M6CRNUIfoKG4iqnIW77-44" value="" style="shape=singleArrow;direction=south;whiteSpace=wrap;html=1;" vertex="1" parent="1">
          <mxGeometry x="441.4" y="428" width="30" height="50" as="geometry" />
        </mxCell>
        <mxCell id="6M6CRNUIfoKG4iqnIW77-47" value="VPC" style="points=[[0,0],[0.25,0],[0.5,0],[0.75,0],[1,0],[1,0.25],[1,0.5],[1,0.75],[1,1],[0.75,1],[0.5,1],[0.25,1],[0,1],[0,0.75],[0,0.5],[0,0.25]];outlineConnect=0;gradientColor=none;html=1;whiteSpace=wrap;fontSize=12;fontStyle=0;container=1;pointerEvents=0;collapsible=0;recursiveResize=0;shape=mxgraph.aws4.group;grIcon=mxgraph.aws4.group_vpc2;strokeColor=#8C4FFF;fillColor=none;verticalAlign=top;align=left;spacingLeft=30;fontColor=#AAB7B8;dashed=0;" vertex="1" parent="1">
          <mxGeometry x="160" y="340" width="600" height="540" as="geometry" />
        </mxCell>
        <mxCell id="6M6CRNUIfoKG4iqnIW77-48" value="" style="image;aspect=fixed;perimeter=ellipsePerimeter;html=1;align=center;shadow=0;dashed=0;spacingTop=3;image=img/lib/active_directory/internet_cloud.svg;" vertex="1" parent="1">
          <mxGeometry x="377.04" y="51.3" width="158.73" height="100" as="geometry" />
        </mxCell>
        <mxCell id="6M6CRNUIfoKG4iqnIW77-49" value="" style="shape=singleArrow;direction=south;whiteSpace=wrap;html=1;" vertex="1" parent="1">
          <mxGeometry x="439.2" y="151.3" width="40.8" height="68.7" as="geometry" />
        </mxCell>
        <mxCell id="6M6CRNUIfoKG4iqnIW77-50" value="" style="shape=singleArrow;whiteSpace=wrap;html=1;" vertex="1" parent="1">
          <mxGeometry x="298" y="89" width="80" height="41.3" as="geometry" />
        </mxCell>
        <mxCell id="6M6CRNUIfoKG4iqnIW77-51" value="&lt;h1 style=&quot;margin-top: 0px;&quot;&gt;Internet&lt;/h1&gt;" style="text;html=1;whiteSpace=wrap;overflow=hidden;rounded=0;" vertex="1" parent="1">
          <mxGeometry x="570" y="89" width="120" height="51" as="geometry" />
        </mxCell>
      </root>
    </mxGraphModel>
  </diagram>
</mxfile>
